<svg xmlns="http://www.w3.org/2000/svg" viewBox="0 0 841.67 592.21"><defs><style>.a,.b{fill:#4d4d4d;stroke:#000;stroke-miterlimit:10;}.a{stroke-width:8px;}.b{stroke-width:10px;}.c,.d{fill:#fff;}.d,.e{opacity:0.5;}</style></defs><path class="a" d="M407.57,223.46H265.89a71.58,71.58,0,0,0-56.79,28L158,318.06a71.57,71.57,0,0,0,0,87.22l51.15,66.6a71.59,71.59,0,0,0,56.79,28H407.57a71.6,71.6,0,0,0,56.79-28l51.15-66.6a71.6,71.6,0,0,0,0-87.22l-51.15-66.61A71.59,71.59,0,0,0,407.57,223.46Z" transform="translate(-95.67 -219.46)"/><rect class="b" x="5" y="108.88" width="831.67" height="478.33" rx="60"/><path class="c" d="M265.71,667.51a4.76,4.76,0,0,1-1.11,3.08,7.87,7.87,0,0,1-3.68,2.22,35.74,35.74,0,0,1-6.83,1.37,116.63,116.63,0,0,1-21.79,0,35.85,35.85,0,0,1-6.93-1.37,7.84,7.84,0,0,1-3.67-2.22,4.76,4.76,0,0,1-1.11-3.08V458.68a4.76,4.76,0,0,1,1.11-3.08,7.82,7.82,0,0,1,3.76-2.22,37.74,37.74,0,0,1,6.92-1.37,93.7,93.7,0,0,1,10.77-.51,95.61,95.61,0,0,1,10.94.51,35.74,35.74,0,0,1,6.83,1.37,7.87,7.87,0,0,1,3.68,2.22,4.76,4.76,0,0,1,1.11,3.08Z" transform="translate(-95.67 -219.46)"/><path class="c" d="M438,471a71.81,71.81,0,0,1-.43,8.63,19.34,19.34,0,0,1-1.36,5.56,8.86,8.86,0,0,1-2.14,3.07,4.06,4.06,0,0,1-2.73,1H359v59.47h67.84a4.66,4.66,0,0,1,2.74.85,7.21,7.21,0,0,1,2.13,2.91A18.8,18.8,0,0,1,433.1,558a85.12,85.12,0,0,1,0,17.09,21.16,21.16,0,0,1-1.37,5.64,7.86,7.86,0,0,1-2.13,3.16,4.3,4.3,0,0,1-2.74.94H359v82.37a5.21,5.21,0,0,1-1,3.25,7.74,7.74,0,0,1-3.67,2.31,33.49,33.49,0,0,1-6.92,1.45,116.63,116.63,0,0,1-21.79,0,31.55,31.55,0,0,1-6.92-1.45,8.39,8.39,0,0,1-3.68-2.31,5,5,0,0,1-1.11-3.25V466.71q0-7.51,3.85-10.85a13.92,13.92,0,0,1,9.48-3.34H431.31a4.35,4.35,0,0,1,2.73.94,8,8,0,0,1,2.14,3.08,20.69,20.69,0,0,1,1.36,5.73A74,74,0,0,1,438,471Z" transform="translate(-95.67 -219.46)"/><path class="c" d="M658.26,559.85q0,30.42-8,52T627.5,647.18q-14.87,13.67-36.15,20.08t-50.67,6.41H487.87a13.92,13.92,0,0,1-9.48-3.34q-3.84-3.33-3.85-10.85V466.71q0-7.51,3.85-10.85a13.92,13.92,0,0,1,9.48-3.34h56.74q29.57,0,50.16,6.93T629.46,480a88,88,0,0,1,21.45,33.59Q658.26,533.54,658.26,559.85Zm-46.48,1.54a111,111,0,0,0-3.68-29.23,62.25,62.25,0,0,0-11.79-23.41,54.71,54.71,0,0,0-20.85-15.47q-12.74-5.55-33.41-5.55H519.32V638.12h23.41q18.46,0,31.11-4.79a51.87,51.87,0,0,0,21.1-14.44q8.46-9.64,12.65-24T611.78,561.39Z" transform="translate(-95.67 -219.46)"/><path class="c" d="M826.25,607.36q0,17.43-6.49,30.59a63.5,63.5,0,0,1-17.6,22,76.69,76.69,0,0,1-26,13.24,110.23,110.23,0,0,1-31.79,4.45,113.52,113.52,0,0,1-21.27-1.88,120.87,120.87,0,0,1-17.35-4.53,76.07,76.07,0,0,1-12.56-5.56,36.05,36.05,0,0,1-7.26-5.12,12.69,12.69,0,0,1-3.16-6.41,58.2,58.2,0,0,1-.95-12.05q0-5.29.35-8.89a25.4,25.4,0,0,1,1.11-5.81,6.33,6.33,0,0,1,2.05-3.16,5,5,0,0,1,3-.94q2.38,0,6.75,2.82a118.16,118.16,0,0,0,11.19,6.24,101.31,101.31,0,0,0,16.32,6.24,77.32,77.32,0,0,0,22,2.82,50.73,50.73,0,0,0,14.7-2,33,33,0,0,0,11-5.55,23.68,23.68,0,0,0,6.92-8.89,28.39,28.39,0,0,0,2.39-11.79,20.68,20.68,0,0,0-4.1-12.9,40.82,40.82,0,0,0-10.68-9.57,112.55,112.55,0,0,0-15-7.87q-8.37-3.66-17.26-7.77a158,158,0,0,1-17.26-9.32,69.73,69.73,0,0,1-15-12.47,58.6,58.6,0,0,1-10.68-17.18q-4.11-9.9-4.11-23.75,0-15.9,5.9-27.94a57.32,57.32,0,0,1,15.89-20A67.82,67.82,0,0,1,731,452.52a103.12,103.12,0,0,1,28.79-3.93,104.25,104.25,0,0,1,15.73,1.2A107,107,0,0,1,790.19,453a81.49,81.49,0,0,1,12.14,4.61c3.53,1.71,5.86,3.14,7,4.27a12.3,12.3,0,0,1,2.31,2.91,13.93,13.93,0,0,1,1,3.16,34.13,34.13,0,0,1,.6,5q.16,3,.17,7.43,0,5-.26,8.37a31.94,31.94,0,0,1-.85,5.64,6.76,6.76,0,0,1-1.71,3.25,4.27,4.27,0,0,1-3,1c-1.26,0-3.25-.8-6-2.4s-6.09-3.33-10.08-5.21a96.28,96.28,0,0,0-13.84-5.13,61.44,61.44,0,0,0-17.26-2.3,41.42,41.42,0,0,0-12.82,1.79,26.48,26.48,0,0,0-9.14,5A19.52,19.52,0,0,0,733,498a24.84,24.84,0,0,0-1.8,9.4,20.66,20.66,0,0,0,4,12.73A38.42,38.42,0,0,0,746,529.68a114.55,114.55,0,0,0,15.29,7.87q8.55,3.68,17.43,7.77a171.4,171.4,0,0,1,17.44,9.32,70.21,70.21,0,0,1,15.21,12.47,58.2,58.2,0,0,1,10.76,17.09Q826.26,594,826.25,607.36Z" transform="translate(-95.67 -219.46)"/><path class="d" d="M292.55,693.09a30.64,30.64,0,0,0,0,43.34l46.3,46.3a30.64,30.64,0,0,0,43.34,0L687.76,477.16l-89.64-89.64Z" transform="translate(-95.67 -219.46)"/><g class="e"><path class="c" d="M738.52,374.76a38.11,38.11,0,0,0-38-38H585.36c-20.9,0-26.58,11.42-12.62,25.38L625,414.39l35.9,35.9,52.25,52.25c14,14,25.38,8.28,25.38-12.62Z" transform="translate(-95.67 -219.46)"/></g></svg>